<svg xmlns="http://www.w3.org/2000/svg" viewBox="0 0 600 450" role="img" aria-labelledby="title desc"><title id="title">SafeContracts dashboard devices</title><desc id="desc">Contract management dashboard shown on laptop, tablet and mobile</desc><defs><linearGradient id="bg" x1="0" y1="0" x2="1" y2="1"><stop stop-color="#e8f5ff"/><stop offset="1" stop-color="#e7fbf8"/></linearGradient><linearGradient id="nav" x1="0" y1="0" x2="0" y2="1"><stop stop-color="#073a73"/><stop offset="1" stop-color="#031f43"/></linearGradient><filter id="s" x="-20%" y="-20%" width="140%" height="160%"><feDropShadow dx="0" dy="18" stdDeviation="16" flood-color="#062d5b" flood-opacity=".16"/></filter></defs><ellipse cx="300" cy="229" rx="270" ry="185" fill="url(#bg)" opacity=".9"/><g filter="url(#s)"><rect x="72" y="70" width="410" height="265" rx="18" fill="#0a2547"/><rect x="82" y="80" width="390" height="245" rx="12" fill="#f7fbff"/><rect x="82" y="80" width="72" height="245" rx="12" fill="url(#nav)"/><rect x="96" y="108" width="44" height="9" rx="4.5" fill="#2a8cf0"/><rect x="96" y="133" width="33" height="7" rx="3.5" fill="#6a87a6"/><rect x="96" y="154" width="38" height="7" rx="3.5" fill="#6a87a6"/><rect x="96" y="175" width="29" height="7" rx="3.5" fill="#6a87a6"/><g fill="#fff" stroke="#d9e8f6"><rect x="172" y="104" width="67" height="52" rx="10"/><rect x="249" y="104" width="67" height="52" rx="10"/><rect x="326" y="104" width="67" height="52" rx="10"/><rect x="403" y="104" width="51" height="52" rx="10"/></g><g fill="#0b5cc7"><rect x="184" y="119" width="21" height="6" rx="3"/><rect x="261" y="119" width="21" height="6" rx="3"/><rect x="338" y="119" width="21" height="6" rx="3"/></g><g font-family="Arial,sans-serif" font-size="18" font-weight="700" fill="#10233f"><text x="184" y="145">256</text><text x="261" y="145">142</text><text x="338" y="145">18</text><text x="412" y="145">24</text></g><rect x="172" y="172" width="126" height="126" rx="14" fill="#fff" stroke="#d9e8f6"/><circle cx="235" cy="234" r="37" fill="none" stroke="#e4eef8" stroke-width="15"/><path d="M235 197a37 37 0 0 1 35 25" fill="none" stroke="#11bdb5" stroke-width="15" stroke-linecap="round"/><path d="M270 222a37 37 0 0 1-13 41" fill="none" stroke="#ffb735" stroke-width="15" stroke-linecap="round"/><path d="M257 263a37 37 0 0 1-39 4" fill="none" stroke="#1477e8" stroke-width="15" stroke-linecap="round"/><text x="235" y="240" text-anchor="middle" font-family="Arial" font-size="16" font-weight="700" fill="#10233f">256</text><rect x="312" y="172" width="142" height="126" rx="14" fill="#fff" stroke="#d9e8f6"/><path d="M328 268 350 238 374 247 401 210 438 224" fill="none" stroke="#1477e8" stroke-width="5" stroke-linecap="round" stroke-linejoin="round"/><path d="M328 278 356 263 385 270 410 246 438 252" fill="none" stroke="#11bdb5" stroke-width="4" stroke-linecap="round"/><g fill="#dfeaf5"><rect x="327" y="188" width="92" height="7" rx="3.5"/><rect x="327" y="201" width="63" height="6" rx="3"/></g><path d="M134 335h286l34 34H100z" fill="#dbe7f4"/><rect x="190" y="335" width="144" height="8" rx="4" fill="#b8cce1"/></g><g transform="translate(423 202)" filter="url(#s)"><rect width="126" height="178" rx="20" fill="#092b51"/><rect x="8" y="9" width="110" height="160" rx="14" fill="#f8fbff"/><rect x="8" y="9" width="25" height="160" rx="14" fill="url(#nav)"/><rect x="42" y="28" width="63" height="15" rx="6" fill="#e8f3ff"/><rect x="42" y="55" width="63" height="20" rx="7" fill="#fff" stroke="#d9e8f6"/><rect x="42" y="82" width="63" height="20" rx="7" fill="#fff" stroke="#d9e8f6"/><rect x="42" y="109" width="63" height="20" rx="7" fill="#fff" stroke="#d9e8f6"/><rect x="42" y="136" width="63" height="20" rx="7" fill="#fff" stroke="#d9e8f6"/><g fill="#11bdb5"><rect x="82" y="61" width="16" height="8" rx="4"/><rect x="82" y="115" width="16" height="8" rx="4"/></g><rect x="82" y="88" width="16" height="8" rx="4" fill="#ffb735"/><rect x="82" y="142" width="16" height="8" rx="4" fill="#ef6464"/></g><g transform="translate(35 225)" filter="url(#s)"><rect width="82" height="150" rx="20" fill="#092b51"/><rect x="7" y="8" width="68" height="134" rx="14" fill="#f9fcff"/><rect x="18" y="21" width="46" height="12" rx="5" fill="#eaf4ff"/><g fill="#fff" stroke="#dae8f5"><rect x="17" y="44" width="22" height="25" rx="7"/><rect x="43" y="44" width="22" height="25" rx="7"/><rect x="17" y="73" width="22" height="25" rx="7"/><rect x="43" y="73" width="22" height="25" rx="7"/></g><circle cx="41" cy="119" r="17" fill="none" stroke="#e4eef8" stroke-width="8"/><path d="M41 102a17 17 0 0 1 16 12" fill="none" stroke="#11bdb5" stroke-width="8" stroke-linecap="round"/><path d="M57 114a17 17 0 0 1-10 20" fill="none" stroke="#1477e8" stroke-width="8" stroke-linecap="round"/></g><g transform="translate(490 58)"><path d="M27 0 50 9v17c0 17-10 28-23 34C14 54 4 43 4 26V9z" fill="#0b5cc7"/><path d="m16 29 8 8 15-19" fill="none" stroke="#fff" stroke-width="5" stroke-linecap="round" stroke-linejoin="round"/></g></svg>